<svg height="512" viewBox="0 0 512 512" width="512" xmlns="http://www.w3.org/2000/svg"><g id="filled_outline" data-name="filled outline"><path d="m472 208-16 32h-416v-30.628a65.374 65.374 0 0 1 65.37-65.372h342.63l24 32z" fill="#f85542"/><path d="m328 312h-116l-29.252 9.4a27.064 27.064 0 0 0 -20.508-9.4h-2.666a27.068 27.068 0 0 0 -18.933 46.413l66.207 64.8a48 48 0 0 0 40.873 13.138l80.279-12.351h32v-112z" fill="#fad7be"/><path d="m407.997 311.998h64v120h-64z" fill="#4298d1"/><path d="m407.997 311.998h64v16h-64z" fill="#3e8cc7"/><path d="m463.997 311.998h-416.001l-8-48h432.001z" fill="#ebebeb"/><circle cx="111.997" cy="223.998" fill="#878787" r="40"/><circle cx="111.997" cy="223.998" fill="#ebebeb" r="16"/><circle cx="399.997" cy="223.998" fill="#878787" r="40"/><circle cx="399.997" cy="223.998" fill="#ebebeb" r="16"/><path d="m448 144h-304l57.057-46.683a112 112 0 0 1 70.92-25.317h57.628a112 112 0 0 1 79.2 32.8z" fill="#bef5fa"/><path d="m292.684 240h22.625l18.344-18.344a7.994 7.994 0 0 0 2.347-5.656v-72h-16v68.688z" fill="#de4c3b"/><path d="m175.997 143.998h16v96h-16z" fill="#de4c3b"/><path d="m319.997 71.998h16v72h-16z" fill="#b1e4e9"/><path d="m370.618 79.862 29.382 64.138v8l48-8-39.2-39.2a111.858 111.858 0 0 0 -38.182-24.938z" fill="#f85542"/><path d="m271.997 167.998h32v16h-32z" fill="#de4c3b"/><path d="m466 168h-18a8 8 0 0 0 0 16h24v-8z" fill="#ff9201"/><path d="m431.997 391.998h16v16h-16z" fill="#3474a6"/><path d="m359.997 311.998h48v112h-48z" fill="#ebebeb"/><path d="m359.997 311.998h48v16h-48z" fill="#dbdbdb"/><path d="m134.982 328h53.448l-5.685-6.6a27.064 27.064 0 0 0 -20.508-9.4h-2.666a26.993 26.993 0 0 0 -24.589 16z" fill="#f3d0b9"/><path d="m288 320h-96a24 24 0 0 0 -24 24 24 24 0 0 0 24 24h96z" fill="#eccbb4"/><path d="m360 312h-160a24 24 0 0 0 -24 24 24 24 0 0 0 24 24h160z" fill="#fad7be"/><path d="m200 312a23.932 23.932 0 0 0 -22.531 16h182.531v-16z" fill="#f3d0b9"/><circle cx="111.992" cy="224" r="16"/><circle cx="399.992" cy="224" r="16"/><path d="m455.992 248a8 8 0 0 0 7.155-4.422l16-32a8.007 8.007 0 0 0 .844-3.578v-32a8.005 8.005 0 0 0 -1.6-4.8l-23.776-31.572a22.986 22.986 0 0 0 -2.105-2.423l-38.057-38.059a119.218 119.218 0 0 0 -84.853-35.146h-57.628a120.32 120.32 0 0 0 -75.988 27.125l-54.847 44.875h-35.784a73.361 73.361 0 0 0 -73.361 73.36v30.64a8 8 0 0 0 8 8h30.458a48.222 48.222 0 0 0 5.8 8h-36.127a8.136 8.136 0 0 0 -3.811.887 8.021 8.021 0 0 0 -4.211 8.428l8 48a8 8 0 0 0 7.891 6.685h82.186a35.091 35.091 0 0 0 4.859 44.119l66.242 64.8a56.3 56.3 0 0 0 39.231 15.958 55.214 55.214 0 0 0 8.456-.65l79.634-12.227h71.389a8 8 0 0 0 8 8h64a8 8 0 0 0 8-8v-120a8 8 0 0 0 -6.578-7.866l6.47-38.819a8.023 8.023 0 0 0 -4.212-8.428 8.133 8.133 0 0 0 -3.811-.887h-36.13a48.227 48.227 0 0 0 5.8-8zm0-80h-8a8 8 0 1 0 0 16h16v22.111l-12.944 25.889h-3.735a48 48 0 1 0 -94.641 0h-29.365l10.342-10.343a8 8 0 0 0 2.343-5.657v-64h108zm-302.457 80h204.915a48.222 48.222 0 0 0 5.8 8h-216.519a48.227 48.227 0 0 0 5.804-8zm166.457-96v60.687l-19.314 19.313h-108.686v-80zm16-71.8a103.692 103.692 0 0 1 28.642 5.821l22.894 49.979h-51.536zm92.686 55.8h-23.551l-17.59-38.4a105.065 105.065 0 0 1 15.6 12.862zm-222.563-32.492a104.284 104.284 0 0 1 65.857-23.508h48.02v56h-153.592zm-158.123 128.492v-22.64a57.425 57.425 0 0 1 57.361-57.36h70.639v80h-16.679a48 48 0 1 0 -94.641 0zm32-8a32 32 0 1 1 32 32 32.037 32.037 0 0 1 -32-32zm248 192a7.966 7.966 0 0 0 -1.214.093l-80.252 12.322a40.146 40.146 0 0 1 -34.059-10.934l-66.253-64.811a18.951 18.951 0 0 1 -5.5-16.179 19.259 19.259 0 0 1 6.409-11.849 18.815 18.815 0 0 1 12.469-4.642h2.64a18.947 18.947 0 0 1 8.863 2.22 32.032 32.032 0 0 0 28.9 45.78h88a8 8 0 0 0 0-16h-88a16.037 16.037 0 0 1 -16-16 15.631 15.631 0 0 1 3.827-10.386 16.051 16.051 0 0 1 12.17-5.614h152v96zm40 0v-96h32v96zm96 8h-48v-104h48zm-6.777-120h-402.445l-5.334-32h413.113zm-89.223-80a32 32 0 1 1 32 32 32.037 32.037 0 0 1 -32-32z"/><path d="m271.992 168h32v16h-32z"/><path d="m431.992 392h16v16h-16z"/></g></svg>